# xmcd
# 
# Track frame offsets:
#	150
#	17233
#	31869
#	41262
#	67032
#	83813
#	96937
#	115148
#	134929
#	152432
#	171105
#	191258
#
# Disc length: 2793 seconds
#
# Revision: 1
# Processed by: cddbd v1.5.1PL0 Copyright (c) Steve Scherf et al.
# Submitted via: Audio-CD-Archiv 3.00.486
#
DISCID=970ae70c
DTITLE=Chris Cain - Hall Of Shame
DYEAR=1900
DGENRE=blues
TTITLE0=First Time for Everything
TTITLE1=World Got the Blues Before Sunrise
TTITLE2=End of the Tunnel
TTITLE3=Hall of Shame
TTITLE4=Love Doin' Something
TTITLE5=Stars Over Memphis
TTITLE6=Downfall of a Lonely Man
TTITLE7=Up on Stoney Mountain
TTITLE8=Double Dose
TTITLE9=Love Just Moved
TTITLE10=Ain't Gonna Worry
TTITLE11=Feel the Chill
EXTD=
EXTT0=
EXTT1=
EXTT2=
EXTT3=
EXTT4=
EXTT5=
EXTT6=
EXTT7=
EXTT8=
EXTT9=
EXTT10=
EXTT11=
PLAYORDER=
